<?xml version="1.0" encoding="UTF-8"?>
<svg version="1.1" xmlns="http://www.w3.org/2000/svg" width="2561" height="2498">
<path d="M0 0 C1.08778559 -0.00282738 2.17557117 -0.00565475 3.29631996 -0.00856781 C9.0793035 -0.02344449 14.86226295 -0.03274046 20.64526367 -0.03710938 C25.30127001 -0.0414451 29.95708591 -0.0551612 34.61303711 -0.078125 C75.8289426 -0.27700684 116.88931329 1.14567607 157.89453125 5.515625 C159.39703934 5.67094696 159.39703934 5.67094696 160.92990112 5.82940674 C244.98534994 14.52825843 328.53740901 30.87277125 409.12731934 56.44525146 C411.57729795 57.22142599 414.0291625 57.99139288 416.48144531 58.76025391 C492.87576334 82.75745782 567.67154498 113.95637767 637.79150391 152.70458984 C640.46732165 154.1744457 643.153129 155.62385333 645.84375 157.06640625 C659.50832969 164.40705843 672.8914388 172.18929313 686.17724609 180.19140625 C688.30805115 181.4739361 690.44097384 182.75295882 692.57666016 184.02734375 C707.706613 193.06491572 722.41942366 202.6809454 737.08203125 212.453125 C738.41453415 213.34046326 738.41453415 213.34046326 739.7739563 214.24572754 C754.77084602 224.24492609 769.60543878 234.46081836 784.08203125 245.203125 C784.86666748 245.78360596 785.65130371 246.36408691 786.4597168 246.9621582 C788.81494272 248.70653231 791.16763445 250.45426579 793.51953125 252.203125 C794.23560547 252.73470215 794.95167969 253.2662793 795.68945312 253.81396484 C809.98618859 264.43658586 823.92277407 275.46316201 837.71533203 286.73095703 C839.30226171 288.02584011 840.89301862 289.31602978 842.484375 290.60546875 C849.33589732 296.16918658 856.03652078 301.89746683 862.72119141 307.65917969 C864.48500849 309.17348586 866.25660015 310.67809883 868.03125 312.1796875 C874.73213738 317.86040623 881.26691173 323.67719206 887.67602539 329.68579102 C890.72299428 332.54186338 893.79190921 335.35209504 896.95703125 338.078125 C900.00792959 340.70798641 902.83650202 343.49663755 905.65553284 346.37156677 C907.40956538 348.09507293 909.21596456 349.69006846 911.08959961 351.28149414 C916.25442307 355.77517692 921.06469704 360.60485521 925.8984375 365.44921875 C926.87900006 366.42910553 927.85971084 367.40884401 928.84056091 368.38844299 C930.88353338 370.4299514 932.92471294 372.47323066 934.96459961 374.51782227 C937.55872991 377.11764904 940.15732559 379.71295873 942.75729465 382.30694485 C944.7796095 384.32561896 946.79950315 386.34670233 948.81870842 388.3684864 C950.23469371 389.78544824 951.6526664 391.20042317 953.07069397 392.61534119 C957.56600317 397.12685231 961.9261695 401.69109735 966.07554626 406.52333069 C967.81322124 408.54477591 969.62010286 410.49048749 971.45703125 412.421875 C972.12476562 413.12699219 972.7925 413.83210938 973.48046875 414.55859375 C974.15335938 415.26628906 974.82625 415.97398437 975.51953125 416.703125 C980.64902642 422.09793889 985.66211049 427.56159229 990.51953125 433.203125 C991.25115479 434.05148926 991.25115479 434.05148926 991.99755859 434.91699219 C993.40359227 436.55159771 994.80605507 438.18918339 996.20703125 439.828125 C999.31976766 443.4694207 1002.4338858 447.10901218 1005.57421875 450.7265625 C1011.06086855 457.05997784 1016.38170037 463.48085094 1021.52026367 470.1003418 C1024.40250042 473.80711061 1027.36150199 477.4298017 1030.39453125 481.015625 C1036.06467923 487.77344287 1041.38040088 494.78488675 1046.70410156 501.81689453 C1048.60717656 504.31832743 1050.52650551 506.80660437 1052.44921875 509.29296875 C1060.11275173 519.22823802 1067.47164833 529.28699513 1074.45703125 539.7109375 C1076.66165406 542.98657466 1078.95366103 546.18251061 1081.29296875 549.36328125 C1086.10974595 555.94948681 1090.63325457 562.71855569 1095.14453125 569.515625 C1095.58183563 570.17363098 1096.01914001 570.83163696 1096.46969604 571.50958252 C1116.05949653 601.00122079 1134.39168686 631.21357331 1151.51953125 662.203125 C1152.02581055 663.11803711 1152.53208984 664.03294922 1153.05371094 664.97558594 C1167.28743803 690.78261409 1180.83527899 716.93870233 1192.9765625 743.79785156 C1194.50759662 747.17678572 1196.05886376 750.54583166 1197.61328125 753.9140625 C1217.75149232 797.84343331 1234.75301499 843.20744691 1249.51953125 889.203125 C1249.76596375 889.96929138 1250.01239624 890.73545776 1250.26629639 891.52484131 C1280.05470928 984.29405382 1299.06788453 1080.74789674 1309.72265625 1252.5546875 C1309.72963405 1254.65096558 1309.73667502 1256.74724345 1309.74377441 1258.84352112 C1309.76305349 1265.50505841 1309.7679498 1272.16656285 1309.76953125 1278.828125 C1309.77012039 1279.96107121 1309.77070953 1281.09401741 1309.77131653 1282.26129532 C1309.78327047 1314.80218646 1309.63060535 1347.20028668 1306.74414062 1379.63677979 C1306.51648297 1382.23795407 1306.30475972 1384.83998446 1306.09765625 1387.44287109 C1298.34381359 1484.38677831 1278.70481661 1580.05584511 1155.12646484 1892.31445312 C1153.65481191 1894.95994043 1152.19169982 1897.60999108 1150.73182678 1900.26199341 C1137.70025261 1923.93330801 1137.70025261 1923.93330801 1130.87060547 1935.00927734 C1129.17450861 1937.76336596 1127.49022851 1940.52459507 1125.8046875 1943.28515625 C1118.21004858 1955.70049607 1110.54060829 1968.0576732 1102.51953125 1980.203125 C1102.04064453 1980.92902832 1101.56175781 1981.65493164 1101.06835938 1982.40283203 C1089.92061541 1999.27303625 1078.44718368 2015.87465027 1066.51953125 2032.203125 C1065.93204102 2033.0075 1065.34455078 2033.811875 1064.73925781 2034.640625 C1057.45884393 2044.59459271 1050.10632113 2054.48024865 1042.51953125 2064.203125 C1041.8848291 2065.01910156 1041.8848291 2065.01910156 1041.23730469 2065.8515625 C1031.54201383 2078.30976008 1021.6449889 2090.6059811 1011.40234375 2102.61914062 C1008.55568971 2105.96104588 1005.77372273 2109.34730224 1003.01953125 2112.765625 C998.89262919 2117.83919993 994.51850567 2122.64053642 990.07421875 2127.43359375 C988.01839403 2129.66230893 986.00336168 2131.91080419 984.01953125 2134.203125 C979.77723991 2139.09032524 975.38381876 2143.83821948 970.99755859 2148.59570312 C969.52724217 2150.19473903 968.06373545 2151.79976757 966.6015625 2153.40625 C960.89518857 2159.65734905 955.05005166 2165.72256798 949.03051758 2171.67285156 C945.60688453 2175.07108597 942.38387535 2178.56989702 939.25390625 2182.2421875 C934.4344816 2187.69117663 929.21092858 2192.76518912 923.703125 2197.51171875 C919.43727608 2201.21586335 915.47388896 2205.17153374 911.51953125 2209.203125 C906.97753699 2213.83383009 902.3726051 2218.28560924 897.45703125 2222.51953125 C894.40610522 2225.17063834 891.46762816 2227.93886728 888.51953125 2230.703125 C883.59436918 2235.29513726 878.63606882 2239.82410636 873.51953125 2244.203125 C872.47384124 2245.1027285 871.42828056 2246.00248233 870.3828125 2246.90234375 C822.91891619 2287.71105583 773.14719304 2325.27742207 720.51953125 2359.203125 C719.29218262 2359.99831543 719.29218262 2359.99831543 718.04003906 2360.80957031 C694.79337561 2375.84916829 670.76607556 2389.84631454 646.51953125 2403.203125 C645.53355957 2403.74759277 644.54758789 2404.29206055 643.53173828 2404.85302734 C610.6315739 2422.94216227 576.96696686 2439.63581448 542.48535156 2454.48925781 C538.82743167 2456.06583697 535.1842274 2457.67433456 531.54296875 2459.2890625 C505.83071435 2470.61207985 479.42622502 2480.3770792 452.99111938 2489.87008667 C451.08820904 2490.55346138 449.18701447 2491.24160799 447.28588867 2491.92993164 C435.44006232 2496.12472339 425.22775481 2497.54698897 412.64453125 2497.515625 C410.71673828 2497.53979492 410.71673828 2497.53979492 408.75 2497.56445312 C391.44961561 2497.57323505 376.08878035 2492.44268888 363.51953125 2480.203125 C349.80932589 2464.74081672 346.02568651 2447.26956211 346.17895508 2427.09393311 C346.1797969 2425.50168506 346.17930271 2423.90943586 346.17760181 2422.3171885 C346.17672144 2417.97495555 346.19442935 2413.63297281 346.21531153 2409.29079747 C346.23453692 2404.59370561 346.23614938 2399.89660329 346.23983765 2395.19947815 C346.24847883 2387.06496977 346.26776856 2378.93054361 346.29403687 2370.79607391 C346.33184438 2358.99925186 346.34996443 2347.20245991 346.36283696 2335.40558723 C346.38402357 2316.21584281 346.41640414 2297.02613636 346.45800781 2277.83642578 C346.46049125 2276.6890844 346.46297468 2275.54174302 346.46553338 2274.35963371 C346.48574248 2265.06293513 346.50649759 2255.76623778 346.52734184 2246.4695406 C346.54548673 2238.37210961 346.56343456 2230.27467824 346.58105469 2222.17724609 C346.58353907 2221.03737852 346.58602345 2219.89751095 346.58858311 2218.72310194 C346.62983248 2199.62646268 346.65901069 2180.52982276 346.67978573 2161.43315053 C346.69313523 2149.68825928 346.71705741 2137.94348387 346.75522017 2126.19864652 C346.78075796 2118.12408487 346.79522872 2110.04954947 346.80149579 2101.9749501 C346.80547746 2097.33689459 346.81414395 2092.69898881 346.83677292 2088.06098366 C346.98914311 2055.65295165 344.95985447 2024.04771816 338.51953125 1992.203125 C338.20508057 1990.64368164 338.20508057 1990.64368164 337.88427734 1989.05273438 C330.76702964 1954.79789786 318.56694389 1920.6668609 299.51953125 1891.203125 C299.08286133 1890.52604492 298.64619141 1889.84896484 298.19628906 1889.15136719 C291.95590103 1879.57738094 285.11076071 1870.73639198 277.51953125 1862.203125 C276.84760742 1861.43863037 276.84760742 1861.43863037 276.16210938 1860.65869141 C270.38379385 1854.0380244 270.38379385 1854.0380244 263.89453125 1848.140625 C263.11078125 1847.50125 262.32703125 1846.861875 261.51953125 1846.203125 C261.51953125 1845.543125 261.51953125 1844.883125 261.51953125 1844.203125 C262.49383591 1844.07943542 262.49383591 1844.07943542 263.48782349 1843.95324707 C344.23254328 1833.67761911 423.58818052 1819.43592505 535.51953125 1777.203125 C536.56351074 1776.74357422 537.60749023 1776.28402344 538.68310547 1775.81054688 C575.90024123 1759.35605303 611.31350676 1739.15514669 643.51953125 1714.203125 C644.05852051 1713.78885254 644.59750977 1713.37458008 645.15283203 1712.94775391 C662.81198241 1699.36263138 679.23074622 1684.53964028 695.01953125 1668.828125 C695.66583496 1668.18649414 696.31213867 1667.54486328 696.97802734 1666.88378906 C701.36013337 1662.48692847 705.46933361 1657.90537059 709.51953125 1653.203125 C710.44533723 1652.1551202 711.37234059 1651.10817141 712.30078125 1650.0625 C765.42621587 1589.60674441 799.94083325 1513.76818569 819.51953125 1436.203125 C819.81666016 1435.03104492 820.11378906 1433.85896484 820.41992188 1432.65136719 C842.11729532 1345.98005084 851.85686649 1250.18980984 777.60717773 956.48608398 C768.84047164 941.98763806 759.56789251 927.84481378 749.51953125 914.203125 C748.82609619 913.25276367 748.82609619 913.25276367 748.11865234 912.28320312 C741.85686924 903.71114612 735.33946249 895.47474029 728.35546875 887.48046875 C724.90155711 883.5212496 721.62735001 879.42637544 718.359375 875.3125 C716.51268581 873.00902891 716.51268581 873.00902891 713.51953125 871.203125 C714.19264217 867.03140269 715.56310062 863.42691733 717.14453125 859.515625 C748.21705056 779.22034985 744.10367822 684.53971288 723.51953125 602.203125 C723.22208008 601.01332031 722.92462891 599.82351563 722.61816406 598.59765625 C718.40511796 582.0369691 713.20635913 565.90313949 707.5559082 549.78808594 C707.30366989 549.06859772 707.05143158 548.3491095 706.79154968 547.6078186 C706.32055897 546.26841455 705.84736466 544.92978222 705.37141418 543.59213257 C703.92539602 539.49653459 702.67642519 535.38687785 701.51953125 531.203125 C608.83511845 519.6410735 510.82895956 565.69181782 426.65429688 615.34228516 C423.37152327 617.29098457 420.07928681 619.22291095 416.78515625 621.15234375 C407.18476217 626.78716504 397.59708323 632.44241359 388.18955994 638.39585876 C386.4047615 639.52466842 384.61619475 640.64756741 382.82206726 641.76148987 C378.02107688 644.78891757 373.53145783 647.94237403 369.16943359 651.57788086 C353.78418437 663.94511536 353.78418437 663.94511536 343.96264648 663.32861328 C336.87030912 662.20427641 330.1403204 659.99335916 323.33203125 657.765625 C320.82116964 657.03379508 318.30665486 656.31439413 315.78881836 655.60693359 C310.72782765 654.18131951 305.68058195 652.71766275 300.63867188 651.22607422 C290.73291062 648.34987066 280.70700212 646.26297236 270.58203125 644.328125 C269.68280945 644.15301392 268.78358765 643.97790283 267.8571167 643.79748535 C224.4204551 635.35268143 180.66224327 629.40843608 136.6171875 625.23828125 C135.9604454 625.17555527 135.30370331 625.11282928 134.62705994 625.04820251 C100.84724274 621.94396702 66.98012126 620.81329223 33.07054901 620.88506699 C30.33749838 620.89074346 27.60445405 620.89354153 24.87139893 620.89614868 C-5.32587006 620.93791429 -35.37595032 621.65863769 -65.48046875 624.203125 C-66.51790222 624.29033813 -67.55533569 624.37755127 -68.62420654 624.46740723 C-141.22161272 630.64325472 -213.04100094 642.51630776 -283.42993164 661.42211914 C-284.93994751 661.80871704 -284.93994751 661.80871704 -286.48046875 662.203125 C-287.74274292 662.60942139 -287.74274292 662.60942139 -289.03051758 663.02392578 C-292.63441796 663.28752946 -294.27054629 661.82319317 -297.20703125 659.78515625 C-297.74761673 659.41675125 -298.28820221 659.04834625 -298.84516907 658.66877747 C-300.0045125 657.87636609 -301.15926827 657.07720864 -302.30978394 656.27203369 C-304.73225048 654.57707698 -307.17676158 652.91524221 -309.62028503 651.25085449 C-310.84771352 650.41412452 -312.07396248 649.57566165 -313.29902649 648.73547363 C-344.52521969 627.32915601 -377.95232978 608.70149241 -411.48046875 591.203125 C-412.54168945 590.64915039 -413.60291016 590.09517578 -414.69628906 589.52441406 C-470.99715627 560.33072241 -538.93130278 530.13026557 -603.3203125 530.03515625 C-604.12731094 530.03182785 -604.93430939 530.02849945 -605.76576233 530.02507019 C-607.45898882 530.02004663 -609.15222505 530.01766043 -610.84545898 530.01782227 C-613.40820881 530.01563334 -615.97052898 529.99742201 -618.53320312 529.97851562 C-622.51522413 529.95941517 -626.48790227 530.02308336 -630.46774292 530.15371704 C-632.2065901 530.19640189 -633.94690155 530.1686115 -635.68579102 530.12768555 C-638.61102148 530.2824524 -640.08536538 530.50338397 -642.48046875 532.203125 C-645.38286327 536.98640546 -646.92183423 542.06388736 -648.54296875 547.390625 C-649.04540929 548.93685436 -649.55090555 550.48209384 -650.05932617 552.02636719 C-651.34628066 555.9786352 -652.57706809 559.94575699 -653.78588867 563.92254639 C-654.44063677 566.07234101 -655.10589878 568.21852784 -655.77539062 570.36376953 C-667.32643994 607.50939375 -675.05369768 645.444447 -678.48046875 684.203125 C-678.62403809 685.82480591 -678.62403809 685.82480591 -678.77050781 687.47924805 C-679.69152958 699.35432168 -679.723906 711.23557531 -679.73046875 723.140625 C-679.73114349 724.24539185 -679.73181824 725.35015869 -679.73251343 726.48840332 C-679.68423292 776.46008493 -670.38951848 823.91926203 -654.48046875 871.203125 C-655.22039063 871.76128906 -655.9603125 872.31945312 -656.72265625 872.89453125 C-659.41435602 875.14778134 -661.43244214 877.39335752 -663.60546875 880.140625 C-666.49158662 883.74707972 -669.40908154 887.30715578 -672.42651367 890.80322266 C-679.1779706 898.64634807 -685.3960129 906.83559582 -691.48046875 915.203125 C-692.01510742 915.93321777 -692.54974609 916.66331055 -693.10058594 917.41552734 C-741.35224312 983.6083648 -770.86659537 1061.71815617 -781.66796875 1142.703125 C-781.82297852 1143.85111572 -781.97798828 1144.99910645 -782.13769531 1146.18188477 C-785.10374556 1169.6889638 -785.82679341 1193.17145874 -785.73841858 1216.83158112 C-785.73033223 1219.11670426 -785.72539044 1221.40181753 -785.72106934 1223.68695068 C-785.67366617 1245.48373186 -785.45603154 1267.22909305 -783.6640625 1288.96356201 C-783.46647327 1291.37384845 -783.27791956 1293.78475417 -783.08984375 1296.19580078 C-776.0441842 1385.36413498 -756.97661297 1472.46910046 -658.33642578 1643.90820312 C-656.4827706 1646.03728729 -654.65203018 1648.18240754 -652.8425293 1650.34912109 C-645.86290753 1658.67409513 -638.49590809 1666.50088802 -630.78930664 1674.1550293 C-628.90858347 1676.02495641 -627.03890056 1677.90545138 -625.16992188 1679.78710938 C-619.01728553 1685.94662481 -612.81253363 1691.78535787 -605.98339844 1697.19458008 C-603.53366448 1699.16043662 -601.20167174 1701.21104198 -598.875 1703.3203125 C-594.49215893 1707.25485321 -589.89747712 1710.8219866 -585.16796875 1714.328125 C-584.30115479 1714.97209229 -583.43434082 1715.61605957 -582.54125977 1716.27954102 C-579.86024226 1718.26225825 -577.17172651 1720.23433588 -574.48046875 1722.203125 C-573.67673828 1722.79432129 -572.87300781 1723.38551758 -572.04492188 1723.99462891 C-498.09192305 1778.11366589 -408.06093603 1808.47440211 -297.48046875 1831.203125 C-296.76385071 1831.33914124 -296.04723267 1831.47515747 -295.30889893 1831.61529541 C-264.90422297 1837.35442939 -234.18110922 1841.4113945 -203.48046875 1845.203125 C-203.48046875 1845.863125 -203.48046875 1846.523125 -203.48046875 1847.203125 C-204.9140625 1848.61328125 -204.9140625 1848.61328125 -206.91796875 1850.265625 C-244.66609249 1882.5833169 -265.58541584 1932.52963379 -277.23046875 1979.703125 C-277.69803589 1981.52783325 -277.69803589 1981.52783325 -278.17504883 1983.3894043 C-279.62127204 1989.32363327 -280.63187319 1994.80260851 -280.64453125 2000.921875 C-280.86907253 2013.01476271 -280.86907253 2013.01476271 -284.48046875 2018.203125 C-293.47714684 2024.77410318 -304.73454135 2027.52762687 -315.30596924 2030.56103516 C-318.62386569 2031.54074916 -321.88816635 2032.65320225 -325.1640625 2033.765625 C-349.68639122 2041.96997444 -374.83985639 2047.05307811 -400.48046875 2050.203125 C-401.32206543 2050.3077002 -402.16366211 2050.41227539 -403.03076172 2050.52001953 C-412.19090175 2051.50606195 -421.40292776 2051.44682211 -430.60546875 2051.453125 C-431.49241425 2051.45379974 -432.37935974 2051.45447449 -433.29318237 2051.45516968 C-447.86915499 2051.43760965 -462.09974862 2050.7574627 -476.48046875 2048.203125 C-477.43050781 2048.03683594 -478.38054688 2047.87054687 -479.359375 2047.69921875 C-523.15956443 2039.74090708 -563.08607465 2019.57273482 -595.86328125 1989.57421875 C-597.33072171 1988.2447615 -598.80608538 1986.92352178 -600.30834961 1985.63354492 C-605.07947955 1981.53485999 -609.50738836 1977.24310693 -613.79296875 1972.640625 C-614.44322021 1971.94300049 -615.09347168 1971.24537598 -615.76342773 1970.52661133 C-621.20073703 1964.62598249 -626.2451624 1958.51572852 -631.05419922 1952.09619141 C-632.57420373 1950.07871195 -634.12254753 1948.08487449 -635.671875 1946.08984375 C-643.23539196 1936.2192197 -649.83286087 1925.91191232 -656.19778442 1915.24804688 C-664.38574432 1901.53416347 -673.22139479 1888.46729312 -683.48046875 1876.203125 C-683.90183105 1875.69297852 -684.32319336 1875.18283203 -684.75732422 1874.65722656 C-690.38052525 1867.8502988 -696.11104731 1861.33066968 -702.48046875 1855.203125 C-704.97717252 1852.72658847 -707.45009924 1850.23482781 -709.8828125 1847.6953125 C-716.90196687 1840.44903603 -724.42391166 1834.25782741 -732.48046875 1828.203125 C-733.3938501 1827.50654785 -733.3938501 1827.50654785 -734.32568359 1826.79589844 C-743.34704957 1819.91998769 -752.60539595 1813.78122014 -762.48046875 1808.203125 C-763.12145508 1807.83477539 -763.76244141 1807.46642578 -764.42285156 1807.08691406 C-800.93788095 1786.23410134 -846.88486327 1773.57997383 -888.54296875 1784.015625 C-900.71300808 1787.5569246 -900.71300808 1787.5569246 -909.48046875 1796.203125 C-911.68442537 1800.61103823 -911.14602417 1806.06383973 -909.71484375 1810.6640625 C-899.71196597 1832.43088808 -875.70391393 1847.67029191 -855.96606445 1859.58398438 C-848.68533762 1864.00121547 -842.05678366 1868.79145707 -835.48046875 1874.203125 C-834.04380859 1875.33621094 -834.04380859 1875.33621094 -832.578125 1876.4921875 C-825.02910979 1882.61301065 -818.11736709 1889.35581564 -811.23046875 1896.203125 C-810.30758057 1897.11674805 -809.38469238 1898.03037109 -808.43383789 1898.97167969 C-802.35617397 1905.07717523 -796.8497854 1911.47234621 -791.48046875 1918.203125 C-790.5516953 1919.30745745 -789.61890725 1920.40844445 -788.6796875 1921.50390625 C-772.74526688 1940.61034217 -759.24326389 1962.32660061 -747.48046875 1984.203125 C-746.97 1985.13801758 -746.45953125 1986.07291016 -745.93359375 1987.03613281 C-735.75061826 2005.73993549 -727.28814369 2025.05045722 -719.203125 2044.73046875 C-707.47956138 2073.2399796 -690.8582637 2098.02640903 -669.48046875 2120.203125 C-668.67923584 2121.037229 -668.67923584 2121.037229 -667.86181641 2121.88818359 C-660.79517787 2129.20682707 -653.52130421 2135.94663224 -645.48046875 2142.203125 C-644.52140625 2142.97914063 -643.56234375 2143.75515625 -642.57421875 2144.5546875 C-633.36365563 2151.8812718 -623.56013151 2158.14219156 -613.48046875 2164.203125 C-612.75230957 2164.64156738 -612.02415039 2165.08000977 -611.27392578 2165.53173828 C-575.81842125 2186.62325951 -535.78990171 2198.45601711 -495.29296875 2204.953125 C-494.0598999 2205.15212402 -492.82683105 2205.35112305 -491.55639648 2205.55615234 C-470.32598951 2208.78190052 -449.18402705 2209.58002476 -427.73046875 2209.515625 C-426.43344025 2209.51346985 -425.13641174 2209.5113147 -423.80007935 2209.50909424 C-403.20059 2209.45432899 -382.91485324 2208.81244731 -362.48046875 2206.203125 C-361.26508423 2206.05040131 -361.26508423 2206.05040131 -360.02514648 2205.89459229 C-337.43126673 2203.04391767 -315.05011422 2199.50458006 -292.79492188 2194.65869141 C-290.48046875 2194.203125 -290.48046875 2194.203125 -288.48046875 2194.203125 C-287.89929375 2255.34166037 -287.36853688 2316.48265381 -287.25585938 2377.62412739 C-287.25334066 2378.99000868 -287.2508179 2380.35588996 -287.24829102 2381.72177124 C-287.24705797 2382.39339072 -287.24582493 2383.0650102 -287.24455452 2383.75698179 C-287.23515668 2388.46893403 -287.2178227 2393.18081621 -287.19702148 2397.89273071 C-287.16973538 2404.24609352 -287.15731318 2410.59931423 -287.15639496 2416.95273399 C-287.15373826 2419.27383262 -287.14606538 2421.59493211 -287.13285065 2423.91599464 C-287.01969267 2444.92664984 -288.78936807 2463.15898632 -304.2421875 2479.02734375 C-304.98082031 2479.74535156 -305.71945312 2480.46335937 -306.48046875 2481.203125 C-307.10566406 2481.84894531 -307.73085938 2482.49476563 -308.375 2483.16015625 C-320.6145437 2494.98742059 -337.65670573 2497.73228436 -353.98046875 2497.578125 C-355.82318359 2497.59552734 -355.82318359 2497.59552734 -357.703125 2497.61328125 C-370.99399496 2497.57099852 -382.52704274 2493.71221633 -394.98046875 2489.390625 C-395.66043915 2489.15591492 -396.34040955 2488.92120483 -397.04098511 2488.67938232 C-444.40776522 2472.28752251 -490.61013324 2452.25706443 -535.56268311 2430.14575195 C-537.53970595 2429.17400883 -539.51806054 2428.20501587 -541.49658203 2427.23632812 C-556.95807947 2419.65816035 -572.21538877 2411.87976204 -587.1328125 2403.265625 C-591.53670521 2400.7239635 -595.99084852 2398.29421576 -600.47412109 2395.89599609 C-646.98636319 2370.98323999 -691.22004939 2340.70251033 -733.48046875 2309.203125 C-734.3617041 2308.54787842 -734.3617041 2308.54787842 -735.26074219 2307.87939453 C-738.67944926 2305.33651193 -742.08441994 2302.77617591 -745.48046875 2300.203125 C-746.48851562 2299.44 -747.4965625 2298.676875 -748.53515625 2297.890625 C-756.06881865 2292.15654837 -763.43056514 2286.22445312 -770.76171875 2280.234375 C-773.71158266 2277.82462701 -776.68226953 2275.44341919 -779.66796875 2273.078125 C-784.05101987 2269.58492151 -788.32616742 2265.97345576 -792.59228516 2262.33935547 C-796.03642359 2259.40935818 -799.52112475 2256.53988407 -803.04296875 2253.703125 C-808.11654368 2249.57622294 -812.91788017 2245.20209942 -817.7109375 2240.7578125 C-819.93965268 2238.70198778 -822.18814794 2236.68695543 -824.48046875 2234.703125 C-829.36924368 2230.45946676 -834.11848482 2226.06448958 -838.87744141 2221.67675781 C-840.46295072 2220.21922899 -842.05486408 2218.76901561 -843.6484375 2217.3203125 C-850.13681089 2211.40286839 -856.41165653 2205.31901607 -862.58789062 2199.07641602 C-866.16277248 2195.47684853 -869.82204142 2192.05805571 -873.6875 2188.76953125 C-878.38700674 2184.66386197 -882.65673998 2180.17178129 -886.7265625 2175.44921875 C-890.45411622 2171.16483967 -894.42791375 2167.17804485 -898.48046875 2163.203125 C-903.10491033 2158.66727425 -907.54672473 2154.06784114 -911.77441406 2149.15869141 C-914.5440341 2145.98401245 -917.45768416 2142.94783858 -920.35546875 2139.890625 C-925.22527231 2134.71762301 -929.8382578 2129.43316654 -934.2734375 2123.87890625 C-936.74027654 2120.8881368 -939.34053074 2118.03985674 -941.98046875 2115.203125 C-946.16006788 2110.700472 -950.13218498 2106.07902302 -953.984375 2101.29296875 C-955.87144898 2098.95701332 -957.77387603 2096.63943803 -959.6953125 2094.33203125 C-966.73308231 2085.87210097 -973.55672 2077.28890715 -980.19921875 2068.515625 C-982.99897516 2064.82075416 -985.84862173 2061.16756325 -988.71118164 2057.52124023 C-995.65638668 2048.66699028 -1002.31352653 2039.63876541 -1008.84960938 2030.47949219 C-1010.52365841 2028.14284051 -1012.21088524 2025.81626301 -1013.90234375 2023.4921875 C-1019.21160464 2016.19423439 -1024.46937127 2008.88700639 -1029.421875 2001.33984375 C-1030.95806274 1998.99912505 -1032.50679823 1996.66999309 -1034.0703125 1994.34765625 C-1063.86037789 1950.05614688 -1090.47984877 1903.93381562 -1114.81787109 1856.44482422 C-1115.87712519 1854.37951205 -1116.93960687 1852.31584977 -1118.00634766 1850.25439453 C-1126.57986208 1833.67129969 -1134.17979357 1816.69791374 -1141.66677856 1799.60536194 C-1143.57090228 1795.26062648 -1145.4977813 1790.92748752 -1147.453125 1786.60546875 C-1185.26115342 1702.75034109 -1211.30080295 1612.65410037 -1246.73046875 1392.515625 C-1246.80769165 1391.65401764 -1246.88491455 1390.79241028 -1246.96447754 1389.9046936 C-1247.54405042 1383.3423336 -1248.02896352 1376.77544917 -1248.48046875 1370.203125 C-1248.56767181 1368.96789093 -1248.65487488 1367.73265686 -1248.74472046 1366.45999146 C-1250.56095304 1340.27045817 -1250.8249374 1314.11562947 -1250.79614258 1287.87036133 C-1250.79153227 1283.32371063 -1250.79837707 1278.77732886 -1250.81665039 1274.23071289 C-1250.97925342 1233.317976 -1249.50754974 1192.53058856 -1245.16796875 1151.828125 C-1245.06408844 1150.82479126 -1244.96020813 1149.82145752 -1244.85317993 1148.78771973 C-1236.15096925 1064.84769664 -1219.5150619 981.81579609 -1194.48046875 901.203125 C-1194.2142572 900.34475037 -1193.94804565 899.48637573 -1193.67376709 898.60198975 C-1177.60379774 846.91923786 -1158.23453418 796.31757244 -1135.48046875 747.203125 C-1135.16702515 746.52616577 -1134.85358154 745.84920654 -1134.53063965 745.1517334 C-1123.04194628 720.36288087 -1111.1979924 695.85264131 -1097.97900391 671.93115234 C-1096.50914805 669.2553346 -1095.05974042 666.56952725 -1093.6171875 663.87890625 C-1085.66034577 649.06729344 -1077.15730157 634.60076375 -1068.48046875 620.203125 C-1067.84657227 619.14641602 -1067.21267578 618.08970703 -1066.55957031 617.00097656 C-1055.49986959 598.60254235 -1043.68583649 580.74558941 -1031.6697998 562.96337891 C-1030.59291226 561.36954555 -1029.51755792 559.77467654 -1028.44238281 558.1796875 C-1008.58775229 528.75902913 -987.21483946 500.23514413 -964.6484375 472.8359375 C-963.20732502 471.08582974 -961.77237472 469.33062888 -960.34375 467.5703125 C-954.69200971 460.60964133 -948.88186963 453.79680508 -943.02880859 447.00585938 C-941.50206184 445.22826587 -939.98405167 443.44360485 -938.46875 441.65625 C-932.55444988 434.69058311 -926.49922568 427.89196083 -920.26953125 421.20703125 C-917.8691125 418.63051687 -915.51135744 416.01925764 -913.16796875 413.390625 C-900.41372639 399.2044168 -887.06340557 385.62469591 -873.56225586 372.15454102 C-871.02540404 369.62344776 -868.49315652 367.0878025 -865.96215153 364.55086422 C-863.97780435 362.56288182 -861.99105532 360.57731346 -860.00359917 358.59243965 C-858.62207543 357.21188824 -857.24253085 355.82935716 -855.86305237 354.44676208 C-851.41877399 350.01892794 -846.91538533 345.73234979 -842.15672302 341.64356995 C-840.21461272 339.97466862 -838.33910555 338.24551635 -836.48046875 336.484375 C-835.82046875 335.86175781 -835.16046875 335.23914063 -834.48046875 334.59765625 C-833.82046875 333.97246094 -833.16046875 333.34726562 -832.48046875 332.703125 C-827.24798161 327.7465698 -821.93904813 322.90999915 -816.48046875 318.203125 C-815.6311377 317.47053467 -815.6311377 317.47053467 -814.76464844 316.72314453 C-813.13060516 315.31786731 -811.49371143 313.91600373 -809.85546875 312.515625 C-806.21417305 309.40288859 -802.57458157 306.28877045 -798.95703125 303.1484375 C-792.74086245 297.7630693 -786.44499188 292.53312834 -779.94580078 287.49243164 C-775.17127134 283.77927705 -770.50838249 279.94212927 -765.85546875 276.078125 C-759.20577433 270.56972985 -752.43472526 265.32358393 -745.48046875 260.203125 C-744.25923004 259.28543117 -743.03924886 258.36606225 -741.8203125 257.4453125 C-731.81043191 249.88568258 -721.68879025 242.49232293 -711.48046875 235.203125 C-710.74473633 234.67557617 -710.00900391 234.14802734 -709.25097656 233.60449219 C-692.99445835 221.97236647 -676.25183335 211.07255526 -659.48046875 200.203125 C-658.53751953 199.59162598 -657.59457031 198.98012695 -656.62304688 198.35009766 C-585.22166473 152.22141816 -508.25888484 114.12399499 -56.11328125 1.96484375 C-55.24626587 1.90159409 -54.37925049 1.83834442 -53.48596191 1.7731781 C-35.65816089 0.53502262 -17.86790196 0.03224947 0 0 Z " fill="#FFFFFF" transform="translate(1251.48046875,0.796875)"/>
<path d="M0 0 C6.93535817 5.71513357 6.93535817 5.71513357 7.73828125 10.41796875 C7.52550599 17.12038955 5.9883362 21.04128828 1.234375 25.98046875 C-7.15808863 33.7692981 -16.48644595 35.80739466 -27.64453125 35.69140625 C-34.70380491 35.15776785 -40.09395215 33.14946449 -44.82421875 27.79296875 C-48.46680186 23.06689774 -48.94166968 19.32382824 -48.26171875 13.41796875 C-46.09309157 6.93821524 -40.86606773 2.35924761 -34.984375 -0.80859375 C-24.03853477 -5.87172783 -10.31356082 -7.21414876 0 0 Z " fill="#FFFFFF" transform="translate(948.26171875,2063.58203125)"/>
<path d="M0 0 C6.47096152 3.832504 13.21843877 9.14333389 15.1875 16.71875 C16.0115862 21.85212031 15.70949218 25.17669861 12.625 29.5546875 C7.270677 35.17019699 1.19019981 37.4146507 -6.55859375 37.65234375 C-19.23546314 37.040151 -27.7616076 32.92669061 -36.375 23.5546875 C-39.10109562 19.49323578 -40.20727579 16.50255158 -40.375 11.5546875 C-39.48971217 7.33376158 -38.14308831 4.3441116 -35.125 1.2421875 C-24.11705169 -5.51268987 -11.5652515 -5.56263455 0 0 Z " fill="#FFFFFF" transform="translate(738.375,2058.4453125)"/>
<path d="M0 0 C3.25521679 3.56453603 5.24390567 7.14104733 5.625 12 C5.22399781 17.51648961 2.31983615 21.67413831 -1.50390625 25.5078125 C-9.12058981 31.63786626 -19.52694554 33.01301449 -29 32 C-38.1733898 30.17062458 -44.35018199 26.4254751 -50 19 C-51.73914362 15.52171276 -51.4504589 11.80316012 -51 8 C-47.9371437 1.75177316 -42.57075886 -3.16742764 -36.125 -5.8125 C-23.82956724 -9.76208452 -10.10587845 -8.49044063 0 0 Z " fill="#FFFFFF" transform="translate(853,2079)"/>
<path d="M0 0 C9.01014172 5.20461603 15.65982039 13.09246929 19.890625 22.515625 C20.97047711 27.59092994 21.13099432 31.7095786 19.390625 36.640625 C16.56861753 40.87363621 13.43833508 43.81222164 8.515625 45.453125 C-0.56645514 46.58606342 -7.97937757 43.52264493 -15.234375 38.203125 C-21.964545 32.63824945 -27.82475841 25.48739524 -28.80078125 16.55859375 C-29.03719699 10.37365282 -28.86625566 6.20016238 -24.484375 1.453125 C-17.48142816 -4.7009798 -8.04909153 -3.59424842 0 0 Z " fill="#FFFFFF" transform="translate(641.484375,2001.546875)"/>
<path d="M0 0 C3.97885806 2.15170874 6.94508191 4.31287562 9.875 7.8125 C10.37773438 8.38742187 10.88046875 8.96234375 11.3984375 9.5546875 C16.3756913 15.60022992 18.38104842 21.71975831 19.3125 29.4375 C18.59125369 35.00140007 16.35546577 39.01799604 12.8125 43.3125 C8.15868488 45.68891623 3.9813269 45.70353691 -1.125 44.8125 C-10.6093888 41.04076919 -17.0895043 33.73936921 -21.3984375 24.671875 C-23.54245768 19.18502766 -24.26091926 13.21437219 -22.37109375 7.5546875 C-20.58646682 3.76148046 -18.90246037 0.88401052 -15.125 -1.1875 C-9.46278548 -3.07490484 -5.31936168 -2.52887687 0 0 Z " fill="#FFFFFF" transform="translate(576.125,1928.1875)"/>
<path d="M0 0 C7.91137011 3.56379056 13.0778306 9.21067564 17.3984375 16.63671875 C19.11802238 22.76273988 19.5353902 27.92531335 16.6484375 33.69921875 C13.98580731 36.65769674 12.0516318 37.95742503 8.1015625 38.53515625 C0.18401698 38.66123182 -4.41958531 36.4453203 -10.7890625 31.94921875 C-16.26193682 26.59796386 -20.40726727 20.06236301 -20.66796875 12.1953125 C-20.3264117 6.74074989 -18.42833674 4.02599299 -14.6015625 0.19921875 C-10.13340898 -2.03485801 -4.65699614 -1.43345977 0 0 Z " fill="#FFFFFF" transform="translate(523.6015625,1861.80078125)"/>
<path d="M0 0 C6.29748792 2.89627281 11.13551456 6.85696662 14.26953125 13.125 C14.8449175 20.14471231 14.8449175 20.14471231 12.58203125 24 C8.57824577 27.67915423 4.97871503 28.59006359 -0.48046875 28.4453125 C-7.44357293 27.45403725 -14.61972059 24.23159823 -18.9140625 18.5625 C-21.59246446 14.41051356 -22.47308349 11.13764948 -21.73046875 6.125 C-16.75146672 -1.87696755 -8.60142145 -2.75639257 0 0 Z " fill="#FFFFFF" transform="translate(472.73046875,1817.875)"/>
</svg>
