<?xml version="1.0" encoding="UTF-8"?>
<svg version="1.1" xmlns="http://www.w3.org/2000/svg" width="512" height="512">
<path d="M0 0 C168.96 0 337.92 0 512 0 C512 168.96 512 337.92 512 512 C343.04 512 174.08 512 0 512 C0 343.04 0 174.08 0 0 Z " fill="#0B63BD" transform="translate(0,0)"/>
<path d="M0 0 C1.35400288 1.16387724 2.68832772 2.35111655 4 3.5625 C4.67160156 4.14386719 5.34320313 4.72523438 6.03515625 5.32421875 C24.98269588 22.73843147 29.44735706 50.1174841 31 74.5625 C31.13473735 78.71851636 31.15686157 82.8708113 31.16113281 87.02880859 C31.16609772 88.21085876 31.17106262 89.39290894 31.17617798 90.61077881 C31.19065281 94.47750449 31.1975729 98.34418931 31.203125 102.2109375 C31.20586586 103.55182545 31.20872265 104.89271316 31.21169281 106.23360062 C31.22530881 112.52440527 31.23500953 118.81519722 31.2388947 125.10601556 C31.2433902 132.34148169 31.26103146 139.57676032 31.2898953 146.81216943 C31.31152077 152.42944768 31.3215991 158.0466731 31.32293582 163.66399252 C31.32398131 167.00977417 31.33129484 170.35523706 31.34775543 173.70100021 C31.36478637 177.42499925 31.36294386 181.14853655 31.35644531 184.87255859 C31.3656601 185.9729245 31.37487488 187.07329041 31.3843689 188.20700073 C31.33017089 198.10847733 31.33017089 198.10847733 28 202.5625 C24.52135988 204.57834665 21.43493934 204.82118196 17.46289062 204.85302734 C16.37826538 204.86578705 15.29364014 204.87854675 14.17614746 204.89169312 C12.43379822 204.89503159 12.43379822 204.89503159 10.65625 204.8984375 C8.85347595 204.9084227 8.85347595 204.9084227 7.01428223 204.91860962 C4.47584563 204.92872464 1.93738251 204.933427 -0.60107422 204.93310547 C-4.48579549 204.93748399 -8.3693855 204.97383299 -12.25390625 205.01171875 C-14.72135028 205.01758599 -17.18879971 205.021556 -19.65625 205.0234375 C-20.81781616 205.03780853 -21.97938232 205.05217957 -23.17614746 205.06698608 C-31.22664079 205.0213143 -31.22664079 205.0213143 -35.20898438 202.65869141 C-37.81870845 199.6042897 -38.12535619 197.96476151 -38.13130188 194.03257751 C-38.13731415 192.60124229 -38.13731415 192.60124229 -38.14344788 191.14099121 C-38.1426548 189.56481018 -38.1426548 189.56481018 -38.1418457 187.95678711 C-38.14532013 186.85238785 -38.14879456 185.74798859 -38.15237427 184.61012268 C-38.15974357 182.2027277 -38.16508267 179.79532588 -38.16866493 177.38792229 C-38.17582841 173.56467576 -38.19149894 169.74155773 -38.21000671 165.91835022 C-38.26244816 155.04413828 -38.31078258 144.16999047 -38.32592773 133.2956543 C-38.33528243 126.64718752 -38.36558208 119.99900349 -38.40724754 113.35064888 C-38.41947805 110.82762631 -38.42469351 108.30455871 -38.42244911 105.78150749 C-38.08239721 77.85777842 -38.08239721 77.85777842 -50.66015625 53.734375 C-57.1247871 47.66734103 -64.32652248 46.05428959 -73 46.1875 C-73.75539063 46.17589844 -74.51078125 46.16429687 -75.2890625 46.15234375 C-84.23918251 46.19847839 -91.52410388 49.39561967 -98 55.5625 C-107.34855105 67.00047376 -110.31364748 79.48082136 -110.25537109 93.95385742 C-110.25899155 95.05744095 -110.262612 96.16102448 -110.26634216 97.29804993 C-110.273204 99.67969629 -110.27574767 102.06135828 -110.27439499 104.44301414 C-110.27342581 108.21344442 -110.28641665 111.98359274 -110.30337524 115.75398254 C-110.34954312 126.46870757 -110.37435202 137.18337873 -110.38085938 147.89819336 C-110.38501491 154.46389028 -110.41008837 161.02932445 -110.44618607 167.59493446 C-110.45598742 170.09356206 -110.45831422 172.59223061 -110.45301437 175.09087181 C-110.44595522 178.5806821 -110.46320121 182.06960023 -110.48583984 185.55932617 C-110.47358116 187.10473587 -110.47358116 187.10473587 -110.46107483 188.68136597 C-110.52760223 194.44207989 -110.9482474 198.10986501 -115 202.5625 C-118.04104527 204.71362731 -120.65860771 204.82711289 -124.33178711 204.86889648 C-125.39646713 204.88488388 -126.46114716 204.90087128 -127.55809021 204.91734314 C-128.70294388 204.92270584 -129.84779755 204.92806854 -131.02734375 204.93359375 C-132.20841202 204.94262222 -133.38948029 204.9516507 -134.6063385 204.96095276 C-137.10366275 204.97545752 -139.60102503 204.98434255 -142.09838867 204.98803711 C-145.91975766 204.99994471 -149.73951811 205.04914156 -153.56054688 205.09960938 C-155.98697128 205.10907222 -158.41340561 205.11630792 -160.83984375 205.12109375 C-161.98267319 205.14062607 -163.12550262 205.16015839 -164.30296326 205.18028259 C-173.12759134 205.13005589 -173.12759134 205.13005589 -176.19750977 202.09008789 C-177.08974243 200.83893188 -177.08974243 200.83893188 -178 199.5625 C-178.33 199.2325 -178.66 198.9025 -179 198.5625 C-179.10666004 195.96889847 -179.14778452 193.40160589 -179.14717102 190.80718994 C-179.15084771 189.98498577 -179.1545244 189.1627816 -179.1583125 188.31566215 C-179.16939476 185.53888578 -179.17320084 182.76214678 -179.17700195 179.98535156 C-179.1832632 178.00319295 -179.1899097 176.02103552 -179.19691467 174.03887939 C-179.21435659 168.63795278 -179.2248852 163.23703505 -179.2331202 157.83608723 C-179.23826378 154.46457323 -179.24433981 151.09306202 -179.25063133 147.72154999 C-179.26969263 137.1811153 -179.28392154 126.64068766 -179.2922433 116.10023904 C-179.30201902 103.91792783 -179.32834341 91.73579817 -179.36874419 79.55355096 C-179.39886985 70.14800873 -179.41370882 60.74251864 -179.41702431 51.33692908 C-179.41937896 45.71459143 -179.42839305 40.0924475 -179.45348549 34.47016144 C-179.47670896 29.18095838 -179.4810225 23.89207737 -179.47072411 18.60283661 C-179.47022723 16.66018098 -179.47659214 14.71750981 -179.49028015 12.77490234 C-179.50791014 10.12479406 -179.5009371 7.47585268 -179.48774719 4.82574463 C-179.49871644 4.0550194 -179.50968568 3.28429417 -179.52098733 2.49021363 C-179.46169201 -2.43662167 -178.53109589 -4.98811619 -175 -8.4375 C-172.43981964 -9.71759018 -170.5783472 -9.59257123 -167.71166992 -9.63037109 C-166.60679733 -9.64643402 -165.50192474 -9.66249695 -164.36357117 -9.67904663 C-159.30838576 -9.72342035 -154.25333255 -9.76455801 -149.19799805 -9.78759766 C-146.52908439 -9.80093287 -143.86197813 -9.83145802 -141.19311523 -9.86962891 C-137.35116487 -9.92431351 -133.51025556 -9.94625987 -129.66796875 -9.9609375 C-128.47511765 -9.98360687 -127.28226654 -10.00627625 -126.05326843 -10.02963257 C-116.83906379 -10.00606608 -116.83906379 -10.00606608 -113.77075195 -7.02978516 C-110.7767611 -2.64674437 -110.69448807 0.99718364 -110.4375 6.1875 C-110.39431641 6.98929688 -110.35113281 7.79109375 -110.30664062 8.6171875 C-110.20048543 10.5987511 -110.09973145 12.58060271 -110 14.5625 C-109.56171875 13.94503906 -109.1234375 13.32757813 -108.671875 12.69140625 C-96.87355881 -3.06366232 -81.88737013 -9.35554765 -63 -12.4375 C-61.88109375 -12.623125 -60.7621875 -12.80875 -59.609375 -13 C-39.07894493 -15.48853698 -16.93226859 -12.69194061 0 0 Z " fill="#FDFEFE" transform="translate(384,211.4375)"/>
<path d="M0 0 C1.62716446 -0.01913956 1.62716446 -0.01913956 3.28720093 -0.03866577 C5.04503403 -0.04200424 5.04503403 -0.04200424 6.83837891 -0.04541016 C8.04305817 -0.05206696 9.24773743 -0.05872375 10.48892212 -0.06558228 C13.03931143 -0.0757154 15.5897273 -0.08039909 18.14013672 -0.08007812 C22.04259973 -0.08444764 25.94392886 -0.12075274 29.84619141 -0.15869141 C32.32275003 -0.16456008 34.79931404 -0.16852913 37.27587891 -0.17041016 C39.02763931 -0.19196671 39.02763931 -0.19196671 40.81478882 -0.21395874 C48.87686126 -0.16849187 48.87686126 -0.16849187 52.84082031 2.06933594 C56.64736025 6.6418076 56.98150225 10.35815879 56.95736694 16.20332336 C56.96189806 17.00626192 56.96642917 17.80920047 56.97109759 18.6364705 C56.98376992 21.33021507 56.98211939 24.02375819 56.98046875 26.7175293 C56.98645227 28.64762635 56.9932574 30.577721 57.00082397 32.5078125 C57.01851001 37.75375888 57.02318048 42.99964003 57.02445555 48.24561334 C57.02635384 52.62430963 57.03371064 57.0029907 57.04079974 61.38168114 C57.05709149 71.71287664 57.061968 82.04403728 57.06054688 92.37524414 C57.05934549 103.03278746 57.08044504 113.69012824 57.1120342 124.34762031 C57.1381864 133.49678892 57.1489146 142.64589135 57.14763606 151.79509705 C57.14712608 157.25983081 57.15282908 162.72438466 57.17399216 168.18908119 C57.19335645 173.32978819 57.19351128 178.47014333 57.17895889 183.61086273 C57.1768674 185.49623567 57.18159194 187.38163052 57.19367981 189.26696587 C57.20913044 191.84398382 57.19982581 194.41978833 57.18441772 196.9967804 C57.19470485 197.74017884 57.20499198 198.48357729 57.21559083 199.24950296 C57.14281938 204.76970973 55.7532271 207.85512853 52.68994141 212.29052734 C49.30159284 214.27467196 46.32680284 214.55074401 42.4440918 214.59692383 C40.91208885 214.62090492 40.91208885 214.62090492 39.34913635 214.64537048 C38.25632858 214.65073318 37.16352081 214.65609589 36.03759766 214.66162109 C34.9047081 214.67064957 33.77181854 214.67967804 32.604599 214.6889801 C30.21160521 214.70347036 27.81857191 214.71236629 25.42553711 214.71606445 C21.76885269 214.72797389 18.1138487 214.77718592 14.45751953 214.82763672 C12.13005379 214.83709979 9.80257771 214.84433538 7.47509766 214.84912109 C6.38431412 214.86865341 5.29353058 214.88818573 4.16969299 214.90830994 C-4.29808834 214.85807518 -4.29808834 214.85807518 -7.98413086 211.94311523 C-11.7361351 207.66416845 -11.45665561 203.82258432 -11.45050049 198.40859985 C-11.45347161 197.59693749 -11.45644273 196.78527512 -11.45950389 195.94901693 C-11.46819937 193.21990718 -11.46969985 190.49084126 -11.47119141 187.76171875 C-11.47581893 185.80882168 -11.4808435 183.85592551 -11.48623657 181.9030304 C-11.49936778 176.59105861 -11.50580679 171.27909946 -11.51024723 165.96711397 C-11.51317643 162.6501972 -11.51728092 159.3332839 -11.5217514 156.01636887 C-11.53542744 145.64359478 -11.54509391 135.27082861 -11.54895329 124.89804614 C-11.55343624 112.91444908 -11.57099471 100.93096596 -11.59995389 88.94740355 C-11.62154953 79.69043894 -11.63165642 70.43350643 -11.63299441 61.17651689 C-11.63404384 55.64479024 -11.6399811 50.11317068 -11.65781403 44.58147049 C-11.67425837 39.37928084 -11.67646791 34.1772792 -11.66767502 28.97507286 C-11.66690273 27.06467245 -11.67127257 25.15426207 -11.68113327 23.24388695 C-11.69379705 20.6378398 -11.6880065 18.03246417 -11.67755127 15.42642212 C-11.68560767 14.66873397 -11.69366408 13.91104583 -11.70196462 13.13039744 C-11.6600783 8.67279483 -11.08468401 5.81855443 -8.31005859 2.29052734 C-4.97929216 0.07001639 -3.88739532 0.03102179 0 0 Z " fill="#FDFDFE" transform="translate(118.31005859375,201.70947265625)"/>
<path d="M0 0 C6.2206037 4.99149498 10.79017919 10.7017578 14 18 C14.38623535 18.85887817 14.38623535 18.85887817 14.78027344 19.73510742 C16.95220736 24.93961376 17.54591865 29.57222253 17.5 35.1875 C17.49355469 36.01757568 17.48710937 36.84765137 17.48046875 37.70288086 C17.1259904 49.75631097 12.52336973 59.49160983 4 68 C-6.01651161 76.78345032 -17.08908197 79.87440149 -30.234375 79.31640625 C-41.23846036 78.39178912 -51.61654124 73.47679926 -59.265625 65.390625 C-67.65613313 53.82533001 -71.08832142 42.25547779 -70 28 C-67.31934043 16.20509789 -60.77690203 6.06896781 -51 -1 C-34.47138652 -11.07092263 -16.31541577 -10.16726309 0 0 Z " fill="#FDFEFE" transform="translate(167,104)"/>
<path d="M0 0 C1.2023803 2.4047606 2.39066484 4.8167552 3.55078125 7.2421875 C4.13782789 8.45321855 4.72507243 9.66415368 5.3125 10.875 C5.59544922 11.47441406 5.87839844 12.07382812 6.16992188 12.69140625 C12.10695718 24.82876003 22.0835002 30.69049488 34.5078125 35.15234375 C35.33023438 35.43207031 36.15265625 35.71179688 37 36 C37 36.33 37 36.66 37 37 C24.79 37 12.58 37 0 37 C0 24.79 0 12.58 0 0 Z " fill="#000000" transform="translate(0,475)"/>
<path d="M0 0 C12.21 0 24.42 0 37 0 C34.11721433 1.92185711 31.59895641 2.96706172 28.375 4.1875 C16.97656616 8.91736881 9.42260766 16.16699411 4.45703125 27.53125 C3.23939522 30.66913558 2.08374557 33.81368815 1 37 C0.67 37 0.34 37 0 37 C0 24.79 0 12.58 0 0 Z " fill="#000000" transform="translate(0,0)"/>
<path d="M0 0 C0.33 0 0.66 0 1 0 C1 12.21 1 24.42 1 37 C-11.21 37 -23.42 37 -36 37 C-33.5952394 35.7976197 -31.1832448 34.60933516 -28.7578125 33.44921875 C-27.54678145 32.86217211 -26.33584632 32.27492757 -25.125 31.6875 C-24.52558594 31.40455078 -23.92617188 31.12160156 -23.30859375 30.83007812 C-11.17123997 24.89304282 -5.30950512 14.9164998 -0.84765625 2.4921875 C-0.56792969 1.66976563 -0.28820312 0.84734375 0 0 Z " fill="#000000" transform="translate(511,475)"/>
<path d="M0 0 C12.21 0 24.42 0 37 0 C37 12.21 37 24.42 37 37 C35.7976197 34.5952394 34.60933516 32.1832448 33.44921875 29.7578125 C32.86217211 28.54678145 32.27492757 27.33584632 31.6875 26.125 C31.40455078 25.52558594 31.12160156 24.92617188 30.83007812 24.30859375 C24.89304282 12.17123997 14.9164998 6.30950512 2.4921875 1.84765625 C1.66976563 1.56792969 0.84734375 1.28820312 0 1 C0 0.67 0 0.34 0 0 Z " fill="#000000" transform="translate(475,0)"/>
</svg>
